<svg width="340" height="221" viewBox="0 0 340 221" fill="none" xmlns="http://www.w3.org/2000/svg">
<path d="M106.689 0C67.9239 22.5373 41.8619 64.5207 41.862 112.591C41.862 154.597 61.7625 191.954 92.6498 215.75C40.2431 208.099 9.31163e-06 162.969 0 108.44C-3.87985e-06 49.1318 47.6055 0.9427 106.689 0Z" fill="black"/>
<path d="M245.383 220.082C279.649 196.64 302.135 157.241 302.135 112.59C302.135 67.8369 279.546 28.3595 245.147 4.93802C298.539 11.7071 339.823 57.2948 339.823 112.525C339.823 167.674 298.661 213.208 245.383 220.082Z" fill="black"/>
<path d="M237.062 112.591C237.062 148.529 207.928 177.663 171.99 177.663C136.051 177.663 106.918 148.529 106.918 112.591C106.918 76.6523 136.051 47.5184 171.99 47.5184C207.928 47.5184 237.062 76.6523 237.062 112.591Z" fill="black"/>
</svg>
